<?xml version="1.0" encoding="UTF-8" standalone="no"?>
<!-- Created with Inkscape (http://www.inkscape.org/) -->

<svg
   xmlns:dc="http://purl.org/dc/elements/1.1/"
   xmlns:cc="http://creativecommons.org/ns#"
   xmlns:rdf="http://www.w3.org/1999/02/22-rdf-syntax-ns#"
   xmlns:svg="http://www.w3.org/2000/svg"
   xmlns="http://www.w3.org/2000/svg"
   xmlns:sodipodi="http://sodipodi.sourceforge.net/DTD/sodipodi-0.dtd"
   xmlns:inkscape="http://www.inkscape.org/namespaces/inkscape"
   width="31.077892mm"
   height="57.072163mm"
   viewBox="0 0 110.11852 202.2242"
   id="svg3684"
   version="1.1"
   inkscape:version="0.91 r13725"
   sodipodi:docname="logo_he.svg">
  <defs
     id="defs3686" />
  <sodipodi:namedview
     id="base"
     pagecolor="#ffffff"
     bordercolor="#666666"
     borderopacity="1.0"
     inkscape:pageopacity="0.0"
     inkscape:pageshadow="2"
     inkscape:zoom="1"
     inkscape:cx="211.74293"
     inkscape:cy="46.388697"
     inkscape:document-units="px"
     inkscape:current-layer="layer1"
     showgrid="false"
     fit-margin-top="0"
     fit-margin-left="0"
     fit-margin-right="0"
     fit-margin-bottom="0"
     inkscape:window-width="1920"
     inkscape:window-height="1017"
     inkscape:window-x="-8"
     inkscape:window-y="-8"
     inkscape:window-maximized="1" />
  <metadata
     id="metadata3689">
    <rdf:RDF>
      <cc:Work
         rdf:about="">
        <dc:format>image/svg+xml</dc:format>
        <dc:type
           rdf:resource="http://purl.org/dc/dcmitype/StillImage" />
        <dc:title></dc:title>
      </cc:Work>
    </rdf:RDF>
  </metadata>
  <g
     inkscape:label="Calque 1"
     inkscape:groupmode="layer"
     id="layer1"
     transform="translate(-321.36931,-421.25012)">
    <g
       id="g6955"
       transform="matrix(4.0740123,0,0,-4.0740123,-692.1981,2895.5416)">
      <g
         transform="translate(269.4633,571.4332)"
         id="g4634">
        <path
           inkscape:connector-curvature="0"
           id="path4636"
           style="fill:#2f7789;fill-opacity:1;fill-rule:nonzero;stroke:none"
           d="M 0,0 3.088,-4.633 5.156,-1.974 2.56,3.297 0,0 Z" />
      </g>
      <g
         transform="translate(254.7725,570.4657)"
         id="g4638">
        <path
           inkscape:connector-curvature="0"
           id="path4640"
           style="fill:#797c58;fill-opacity:1;fill-rule:nonzero;stroke:none"
           d="m 0,0 -5.984,-7.36 0,-5.408 5.526,5.434 L 0,0 Z" />
      </g>
      <g
         transform="translate(259.9753,576.9196)"
         id="g4642">
        <path
           inkscape:connector-curvature="0"
           id="path4644"
           style="fill:#26a594;fill-opacity:1;fill-rule:nonzero;stroke:none"
           d="M 0,0 0.33,-7.947 6.88,-1.566 3.194,3.965 0,0 Z" />
      </g>
      <g
         transform="translate(266.7808,585.3624)"
         id="g4646">
        <path
           inkscape:connector-curvature="0"
           id="path4648"
           style="fill:#83111f;fill-opacity:1;fill-rule:nonzero;stroke:none"
           d="M 0,0 -3.612,-4.477 0.075,-10.008 3.362,-6.807 0,0 Z" />
      </g>
      <g
         transform="translate(275.818,579.6082)"
         id="g4650">
        <path
           inkscape:connector-curvature="0"
           id="path4652"
           style="fill:#489cbc;fill-opacity:1;fill-rule:nonzero;stroke:none"
           d="m 0,0 -1.489,3.027 -4.186,-4.08 1.88,-3.825 L 0,0 Z" />
      </g>
      <g
         transform="translate(269.4633,571.4332)"
         id="g4654">
        <path
           inkscape:connector-curvature="0"
           id="path4656"
           style="fill:#261417;fill-opacity:1;fill-rule:nonzero;stroke:none"
           d="M 0,0 2.56,3.297 0.679,7.122 -2.608,3.92 0,0 Z" />
      </g>
      <path
         transform="translate(259.0115,596.7738)"
         inkscape:connector-curvature="0"
         id="path4660"
         style="fill:#60bd8d;fill-opacity:1;fill-rule:nonzero;stroke:none"
         d="M 0,0 -2.627,0 -4.239,-26.308 0.964,-19.854 0,0 Z" />
      <g
         transform="translate(254.7725,570.4657)"
         id="g4662">
        <path
           inkscape:connector-curvature="0"
           id="path4664"
           style="fill:#0b4843;fill-opacity:1;fill-rule:nonzero;stroke:none"
           d="M 0,0 -0.458,-7.334 5.533,-1.493 5.203,6.454 0,0 Z" />
      </g>
      <g
         transform="translate(258.5118,605.0873)"
         id="g4666">
        <path
           inkscape:connector-curvature="0"
           id="path4668"
           style="fill:#83111f;fill-opacity:1;fill-rule:nonzero;stroke:none"
           d="m 0,0 -1.091,2.248 c 0,0 -2.331,-3.566 -2.331,-4.951 0,-2.199 1.033,-3.649 1.033,-3.649 l 3.2,0 0.566,3.451 -2.054,0 L 0,0 Z" />
      </g>
    </g>
  </g>
</svg>
